<?xml version="1.0" encoding="UTF-8"?>
<svg xmlns="http://www.w3.org/2000/svg" xmlns:xlink="http://www.w3.org/1999/xlink" width="3003" height="3003" viewBox="0 0 3003 3003">
<path fill-rule="nonzero" fill="none" fill-opacity="1" d="M 1.042969 0 C 0.765625 0 0.5 0.109375 0.304688 0.308594 C 0.109375 0.5 0 0.769531 0 1.039062 L 0 3001.042969 C 0 3001.617188 0.46875 3002.085938 1.042969 3002.085938 L 3001.039062 3002.085938 C 3001.320312 3002.085938 3001.589844 3001.976562 3001.78125 3001.78125 C 3001.980469 3001.585938 3002.089844 3001.320312 3002.089844 3001.042969 L 3002.089844 1.039062 C 3002.089844 0.46875 3001.621094 0 3001.039062 0 Z M 1.042969 0 "/>
<path fill-rule="nonzero" fill="#a855f7" fill-opacity="1" d="M 1515.128906 357.199219 C 1655.019531 698.449219 1807.730469 898.800781 1905.128906 1009.679688 C 1982.039062 1097.25 2403.480469 1486.589844 1917.75 2095.070312 C 2206.359375 1499.308594 2102.46875 1146.121094 1586.53125 928.320312 L 1586.53125 2189.464844 C 1602.710938 2708.871094 1069.070312 2740.632812 938.917969 2602.484375 C 804.480469 2459.789062 1121.449219 1986.410156 1515.148438 2141.878906 L 1515.148438 357.199219 Z M 1515.128906 357.199219 "/>
<path fill-rule="nonzero" fill="#a855f7" fill-opacity="1" d="M 1515.128906 357.199219 C 1655.019531 698.449219 1807.71875 898.789062 1905.128906 1009.679688 C 1909.519531 1014.671875 1914.898438 1020.519531 1921.261719 1027.429688 C 1930.070312 1036.980469 1940.390625 1048.179688 1951.941406 1061.328125 C 2079.160156 1206.179688 2338.019531 1568.589844 1917.75 2095.070312 C 2192.609375 1527.679688 2111.46875 1180.320312 1657.441406 960.371094 C 1634.738281 949.371094 1611.101562 938.679688 1586.53125 928.320312 L 1586.53125 2189.464844 C 1597.359375 2536.96875 1362.070312 2666.195312 1166.171875 2672.296875 C 1069.269531 2675.316406 981.992188 2648.207031 938.917969 2602.484375 C 867.878906 2527.078125 922.890625 2359.339844 1048.660156 2240.839844 C 1160.898438 2135.09375 1329.5 2068.566406 1515.148438 2141.878906 L 1515.148438 357.199219 L 1515.128906 357.199219 M 1515.128906 357.199219 L 1515.148438 357.199219 L 1515.148438 2141.878906 C 1329.5 2068.566406 1160.898438 2135.09375 1048.660156 2240.839844 C 922.890625 2359.339844 867.878906 2527.078125 938.917969 2602.484375 C 981.992188 2648.207031 1069.269531 2675.316406 1166.171875 2672.296875 C 1362.070312 2666.195312 1597.359375 2536.96875 1586.53125 2189.464844 L 1586.53125 928.320312 C 1611.101562 938.679688 1634.738281 949.371094 1657.441406 960.371094 C 2111.46875 1180.320312 2192.609375 1527.679688 1917.75 2095.070312 C 2338.019531 1568.589844 2079.160156 1206.179688 1951.941406 1061.328125 C 1940.390625 1048.179688 1930.070312 1036.980469 1921.261719 1027.429688 C 1914.898438 1020.519531 1909.519531 1014.671875 1905.128906 1009.679688 C 1807.71875 898.789062 1655.019531 698.449219 1515.128906 357.199219 Z M 1515.128906 357.199219 "/>
</svg>
